#!OML:ASF H:\Male1\Project 1\Capture day 1\Session 1\Male1.ASF
:FULLY-SPECIFIED
:DEGREES
242
root 0.329211 25.6014 1.75253 6.48973 -69.5187 -2.3025
lowerback 13.0964 1.89852 1.97731
upperback 5.07861 2.58273 0.193139
thorax -1.9228 1.23023 -1.28098
lowerneck -6.15151 6.67319 13.0815
upperneck 1.52291 8.45302 -13.5935
head 2.61879 3.98824 -5.85986
rclavicle 2.69353e-014 -1.98785e-016
rhumerus -17.6189 40.7503 -89.9704
rradius 47.9414
rwrist 2.93825
rhand -41.404 39.2969
rfingers 7.12502
rthumb -14.3209 9.81082
lclavicle 2.69353e-014 -1.98785e-016
lhumerus -25.8286 -13.2253 74.2039
lradius 104.6
lwrist 14.9181
lhand -27.7804 -2.03148
lfingers 7.12502
lthumb -1.17382 27.945
rfemur -14.2514 1.07207 26.7152
rtibia 37.2663
rfoot -23.8731 -22.9663
rtoes -10.5968
lfemur -13.6566 -9.30024 -21.3076
ltibia 34.7144
lfoot -21.9934 12.6135
ltoes -9.82181
243
root 0.330231 25.5981 1.80169 6.80975 -69.8099 -2.68948
lowerback 12.8923 1.8891 1.68115
upperback 5.06834 2.53013 0.106222
thorax -1.83525 1.20384 -1.19047
lowerneck -5.97744 6.51207 12.9805
upperneck 1.41098 8.23079 -13.1293
head 2.49981 3.89536 -5.72043
rclavicle -1.49089e-016 1.39149e-015
rhumerus -17.4623 41.0116 -90.0229
rradius 47.396
rwrist 2.79191
rhand -41.2983 39.8211
rfingers 7.12502
rthumb -14.2191 10.3278
lclavicle -1.49089e-016 1.39149e-015
lhumerus -26.0836 -13.5902 74.9906
lradius 104.794
lwrist 14.6121
lhand -29.0695 -1.47641
lfingers 7.12502
lthumb -2.41885 28.4896
rfemur -14.1996 1.59899 26.6346
rtibia 37.3967
rfoot -23.9662 -22.9222
rtoes -10.2681
lfemur -13.2887 -9.01993 -21.3518
ltibia 34.4171
lfoot -22.1172 12.4777
ltoes -9.89383
244
root 0.332354 25.5945 1.8493 7.17979 -70.125 -3.12313
lowerback 12.7093 1.89132 1.38676
upperback 5.05837 2.49447 0.0190181
thorax -1.75763 1.18536 -1.10449
lowerneck -5.77323 6.34673 12.8666
upperneck 1.25505 8.00431 -12.6375
head 2.36214 3.80112 -5.57167
rclavicle 2.73826e-014 -1.04362e-014
rhumerus -17.3191 41.1978 -90.0968
rradius 46.8591
rwrist 2.70402
rhand -41.2199 40.3812
rfingers 7.12502
rthumb -14.1436 10.8827
lclavicle 2.73826e-014 -1.04362e-014
lhumerus -26.3223 -13.8788 75.7645
lradius 104.923
lwrist 14.2947
lhand -30.4608 -1.05385
lfingers 7.12502
lthumb -3.76243 28.8927
rfemur -14.1656 2.14415 26.5666
rtibia 37.5262
rfoot -24.0063 -22.8799
rtoes -10.0958
lfemur -12.9552 -8.72851 -21.3754
ltibia 34.1585
lfoot -22.1566 12.3763
ltoes -10.525
245
root 0.33542 25.5906 1.89555 7.76291 -70.4434 -3.7749
lowerback 12.5547 1.8981 1.16545
upperback 5.04185 2.47506 -0.0560266
thorax -1.69859 1.17513 -1.05035
lowerneck -5.56952 6.18965 12.7586
upperneck 1.10385 7.79073 -12.141
head 2.22929 3.71225 -5.42125
rclavicle 2.26739e-014 -7.00716e-015
rhumerus -17.2111 41.275 -90.2071
rradius 46.3372
rwrist 2.70933
rhand -41.1816 40.9762
rfingers 7.12502
rthumb -14.1066 11.4751
lclavicle 2.26739e-014 -7.00716e-015
lhumerus -26.5159 -14.0725 76.5022
lradius 104.953
lwrist 13.8004
lhand -31.7986 -0.843395
lfingers 7.12502
lthumb -5.05425 29.0763
rfemur -14.142 2.65534 26.5781
rtibia 37.6368
rfoot -23.9646 -22.8573
rtoes -10.098
lfemur -12.6667 -8.46085 -21.3135
ltibia 33.9584
lfoot -22.1347 12.2903
ltoes -11.5898
246
root 0.340035 25.5866 1.93975 8.58081 -70.6998 -4.67265
lowerback 12.4506 1.8896 1.0422
upperback 5.01371 2.44846 -0.116448
thorax -1.67518 1.16177 -1.03719
lowerneck -5.38775 6.03885 12.6399
upperneck 0.98242 7.5871 -11.6266
head 2.1104 3.62681 -5.26175
rclavicle -6.58474e-016 -2.5345e-015
rhumerus -17.1579 41.2416 -90.3588
rradius 45.8536
rwrist 2.7997
rhand -41.2002 41.5762
rfingers 7.12502
rthumb -14.1246 12.0763
lclavicle -6.58474e-016 -2.5345e-015
lhumerus -26.6503 -14.1866 77.1868
lradius 104.852
lwrist 12.9351
lhand -32.9749 -0.724779
lfingers 7.12502
lthumb -6.19 29.1648
rfemur -14.1145 3.05593 26.6866
rtibia 37.7103
rfoot -23.8531 -22.8633
rtoes -10.2108
lfemur -12.4403 -8.25518 -21.1539
ltibia 33.8379
lfoot -22.0799 12.1916
ltoes -12.7431
